<?xml version="1.0" encoding="utf-8"?>
<!-- Generator: Adobe Illustrator 16.0.4, SVG Export Plug-In . SVG Version: 6.00 Build 0)  -->
<!DOCTYPE svg PUBLIC "-//W3C//DTD SVG 1.1//EN" "http://www.w3.org/Graphics/SVG/1.1/DTD/svg11.dtd">
<svg version="1.1" id="Layer_1" xmlns="http://www.w3.org/2000/svg" xmlns:xlink="http://www.w3.org/1999/xlink" x="0px" y="0px"
	 width="388.75px" height="147.5px" viewBox="0 0 388.75 147.5" enable-background="new 0 0 388.75 147.5" xml:space="preserve">
<rect x="183.91" y="7.587" fill="#E2E3E4" width="196.94" height="132.53"/>
<rect x="191.006" y="110.935" fill="#C0C2C4" stroke="#000000" stroke-miterlimit="10" width="180.257" height="23.028"/>
<text transform="matrix(1 0 0 1 238.3613 127.9121)" font-family="'MyriadPro-Bold'" font-size="14">Zookeeper</text>
<rect x="4.898" y="32.045" fill="#E2E3E4" width="150.65" height="90.807"/>
<rect x="191.006" y="48.551" fill="#C0C2C4" stroke="#000000" stroke-miterlimit="10" width="94.71" height="56.217"/>
<text transform="matrix(1 0 0 1 204.1992 81.6719)" font-family="'MyriadPro-Bold'" font-size="14">Coordinator</text>
<rect x="307.908" y="42.527" fill="#C0C2C4" stroke="#000000" stroke-miterlimit="10" width="63.354" height="50.386"/>
<rect x="302.717" y="49.829" fill="#C0C2C4" stroke="#000000" stroke-miterlimit="10" width="63.354" height="50.651"/>
<rect x="297.717" y="57.479" fill="#C0C2C4" stroke="#000000" stroke-miterlimit="10" width="63.354" height="47.289"/>
<text transform="matrix(1 0 0 1 310.9082 81.6719)" font-family="'MyriadPro-Bold'" font-size="14">Server</text>
<text transform="matrix(1 0 0 1 191.0063 32.0454)" font-family="'MyriadPro-Bold'" font-size="18">RAMCloud</text>
<rect x="15.508" y="89.117" fill="#939598" stroke="#000000" stroke-miterlimit="10" width="132.763" height="23.029"/>
<rect x="15.508" y="65.398" fill="#C0C2C4" stroke="#000000" stroke-miterlimit="10" width="132.763" height="23.029"/>
<rect x="15.508" y="42.254" fill="#C0C2C4" stroke="#000000" stroke-miterlimit="10" width="132.763" height="23.029"/>
<text transform="matrix(1 0 0 1 19.7891 105.9854)" font-family="'MyriadPro-Bold'" font-size="14">RAMCloud Backend</text>
<text transform="matrix(1 0 0 1 68.2593 82.9629)" font-family="'MyriadPro-Bold'" font-size="14">RVM</text>
<text transform="matrix(1 0 0 1 50.1631 58.9346)" font-family="'MyriadPro-Bold'" font-size="14">Application</text>
<line fill="none" stroke="#000000" stroke-width="2" stroke-miterlimit="10" x1="148.271" y1="100.479" x2="183.91" y2="100.479"/>
</svg>
