<?xml version="1.0" encoding="UTF-8" standalone="no"?>
<!-- Created with Inkscape (http://www.inkscape.org/) -->

<svg
   xmlns:dc="http://purl.org/dc/elements/1.1/"
   xmlns:cc="http://creativecommons.org/ns#"
   xmlns:rdf="http://www.w3.org/1999/02/22-rdf-syntax-ns#"
   xmlns:svg="http://www.w3.org/2000/svg"
   xmlns="http://www.w3.org/2000/svg"
   xmlns:sodipodi="http://sodipodi.sourceforge.net/DTD/sodipodi-0.dtd"
   xmlns:inkscape="http://www.inkscape.org/namespaces/inkscape"
   id="svg4206"
   version="1.1"
   inkscape:version="0.91 r13725"
   xml:space="preserve"
   width="305"
   height="111.66625"
   viewBox="0 0 305 111.66625"
   sodipodi:docname="lasagna.svg"><metadata
     id="metadata4212"><rdf:RDF><cc:Work
         rdf:about=""><dc:format>image/svg+xml</dc:format><dc:type
           rdf:resource="http://purl.org/dc/dcmitype/StillImage" /><dc:title></dc:title></cc:Work></rdf:RDF></metadata><defs
     id="defs4210"><clipPath
       clipPathUnits="userSpaceOnUse"
       id="clipPath4220"><path
         d="m 0,0 244.001,0 0,89.333 L 0,89.333 0,0 Z"
         id="path4222"
         inkscape:connector-curvature="0" /></clipPath><clipPath
       clipPathUnits="userSpaceOnUse"
       id="clipPath4238"><path
         d="m 0,0 244.001,0 0,89.333 L 0,89.333 0,0 Z"
         id="path4240"
         inkscape:connector-curvature="0" /></clipPath><clipPath
       clipPathUnits="userSpaceOnUse"
       id="clipPath4252"><path
         d="m 0,0 244.001,0 0,89.333 L 0,89.333 0,0 Z"
         id="path4254"
         inkscape:connector-curvature="0" /></clipPath><clipPath
       clipPathUnits="userSpaceOnUse"
       id="clipPath4270"><path
         d="m 0,0 244.001,0 0,89.333 L 0,89.333 0,0 Z"
         id="path4272"
         inkscape:connector-curvature="0" /></clipPath><clipPath
       clipPathUnits="userSpaceOnUse"
       id="clipPath4290"><path
         d="m 0,0 244.001,0 0,89.333 L 0,89.333 0,0 Z"
         id="path4292"
         inkscape:connector-curvature="0" /></clipPath><clipPath
       clipPathUnits="userSpaceOnUse"
       id="clipPath4308"><path
         d="m 0,0 244.001,0 0,89.333 L 0,89.333 0,0 Z"
         id="path4310"
         inkscape:connector-curvature="0" /></clipPath><clipPath
       clipPathUnits="userSpaceOnUse"
       id="clipPath4326"><path
         d="m 0,0 244.001,0 0,89.333 L 0,89.333 0,0 Z"
         id="path4328"
         inkscape:connector-curvature="0" /></clipPath><clipPath
       clipPathUnits="userSpaceOnUse"
       id="clipPath4344"><path
         d="m 0,0 244.001,0 0,89.333 L 0,89.333 0,0 Z"
         id="path4346"
         inkscape:connector-curvature="0" /></clipPath></defs><sodipodi:namedview
     pagecolor="#ffffff"
     bordercolor="#666666"
     borderopacity="1"
     objecttolerance="10"
     gridtolerance="10"
     guidetolerance="10"
     inkscape:pageopacity="0"
     inkscape:pageshadow="2"
     inkscape:window-width="1436"
     inkscape:window-height="861"
     id="namedview4208"
     showgrid="false"
     inkscape:zoom="3.3540984"
     inkscape:cx="99.485748"
     inkscape:cy="55.833126"
     inkscape:window-x="0"
     inkscape:window-y="18"
     inkscape:window-maximized="0"
     inkscape:current-layer="g4214" /><g
     id="g4214"
     inkscape:groupmode="layer"
     inkscape:label="lasagna"
     transform="matrix(1.25,0,0,-1.25,0,111.66625)"><text
       transform="matrix(1,0,0,-1,173.2866,56.2598)"
       style="font-variant:normal;font-weight:bold;font-stretch:normal;font-size:7px;font-family:Arial;-inkscape-font-specification:Arial-BoldMT;writing-mode:lr-tb;fill:#000000;fill-opacity:1;fill-rule:nonzero;stroke:none"
       id="text4230"><tspan
         x="0 4.6690001 9.3380003 14.392 19.061001 23.73"
         y="0"
         sodipodi:role="line"
         id="tspan4232">SERVER</tspan></text>
<g
       id="g4234"><g
         id="g4236"
         clip-path="url(#clipPath4238)"><path
           d="m 6.417,69.542 96.26,0 0,-63.756 -96.26,0 0,63.756 z"
           style="fill:#00cbd7;fill-opacity:1;fill-rule:nonzero;stroke:#000000;stroke-width:0.75;stroke-linecap:butt;stroke-linejoin:round;stroke-miterlimit:14.33600044;stroke-dasharray:none;stroke-opacity:1"
           id="path4242"
           inkscape:connector-curvature="0" /></g></g><text
       transform="matrix(1,0,0,-1,41.915,62.8223)"
       style="font-variant:normal;font-weight:bold;font-stretch:normal;font-size:7px;font-family:Arial;-inkscape-font-specification:Arial-BoldMT;writing-mode:lr-tb;fill:#000000;fill-opacity:1;fill-rule:nonzero;stroke:none"
       id="text4244"><tspan
         x="0 5.0539999 9.3310003 11.277 15.946 21"
         y="0"
         sodipodi:role="line"
         id="tspan4246">CLIENT</tspan></text>
<g
       id="g4248"><g
         id="g4250"
         clip-path="url(#clipPath4252)"><path
           d="m 6.417,62.042 96.26,0 0,-15 -96.26,0 0,15 z"
           style="fill:#3c8c92;fill-opacity:1;fill-rule:nonzero;stroke:#000000;stroke-width:0.75;stroke-linecap:butt;stroke-linejoin:round;stroke-miterlimit:14.33600044;stroke-dasharray:none;stroke-opacity:1"
           id="path4256"
           inkscape:connector-curvature="0" /></g></g><text
       transform="matrix(1,0,0,-1,37.0508,55.3223)"
       style="font-variant:normal;font-weight:bold;font-stretch:normal;font-size:7px;font-family:Arial;-inkscape-font-specification:Arial-BoldMT;writing-mode:lr-tb;fill:#000000;fill-opacity:1;fill-rule:nonzero;stroke:none"
       id="text4258"><tspan
         x="0 5.0539999 8.9460001 12.838 15.561 17.507 22.561001 26.837999 31.115"
         y="0"
         sodipodi:role="line"
         id="tspan4260">User Code</tspan></text>
<text
       transform="matrix(1,0,0,-1,32.8662,50.0317)"
       style="font-variant:normal;font-weight:normal;font-stretch:normal;font-size:6px;font-family:Arial;-inkscape-font-specification:ArialMT;writing-mode:lr-tb;fill:#000000;fill-opacity:1;fill-rule:nonzero;stroke:none"
       id="text4262"><tspan
         x="0 4.0019999 7.3379998 10.674 12.006 13.338 16.337999 19.674 21.341999 22.674 26.01 29.346001 31.014 32.346001 35.681999 39.018002 40.349998"
         y="0"
         sodipodi:role="line"
         id="tspan4264">Application logic</tspan></text>
<g
       id="g4266"><g
         id="g4268"
         clip-path="url(#clipPath4270)"><path
           d="m 6.417,47.979 96.26,0 0,-20.622 -96.26,0 0,20.622 z"
           style="fill:#71bec4;fill-opacity:1;fill-rule:nonzero;stroke:#000000;stroke-width:0.75;stroke-linecap:butt;stroke-linejoin:round;stroke-miterlimit:14.33600044;stroke-dasharray:none;stroke-opacity:1"
           id="path4274"
           inkscape:connector-curvature="0" /></g></g><text
       transform="matrix(1,0,0,-1,36.8755,42.2192)"
       style="font-variant:normal;font-weight:bold;font-stretch:normal;font-size:6px;font-family:Arial;-inkscape-font-specification:Arial-BoldMT;writing-mode:lr-tb;fill:#000000;fill-opacity:1;fill-rule:nonzero;stroke:none"
       id="text4276"><tspan
         x="0 4.3319998 8.3339996 13.332 15 18.666 20.334 24 26.334 29.67 32.004002"
         y="0"
         sodipodi:role="line"
         id="tspan4278">RVM Library</tspan></text>
<text
       transform="matrix(1,0,0,-1,19.5295,35.7212)"
       style="font-variant:normal;font-weight:normal;font-stretch:normal;font-size:6px;font-family:Arial;-inkscape-font-specification:ArialMT;writing-mode:lr-tb;fill:#000000;fill-opacity:1;fill-rule:nonzero;stroke:none"
       id="text4280"><tspan
         x="0 4.9980001 8.3339996 13.332 16.667999 18.666 21.666 23.334 28.332001 31.667999 35.004002 38.34 41.675999 45.012001 50.009998 53.346001 56.681999 58.349998 60.018002 63.354 66.690002 70.026001"
         y="0"
         sodipodi:role="line"
         id="tspan4282">Memory management and </tspan><tspan
         x="7.3319998 10.668 14.004 15.672 19.007999 22.007999 23.676001 25.007999 28.344 31.68 33.348 36.683998 38.352001 40.02 43.02 46.355999 49.692001 53.028 56.363998 59.700001"
         y="6.4980001"
         sodipodi:role="line"
         id="tspan4284">detection of changes</tspan></text>
<g
       id="g4286"><g
         id="g4288"
         clip-path="url(#clipPath4290)"><path
           d="m 6.417,27.354 96.26,0 0,-21.567 -96.26,0 0,21.567 z"
           style="fill:#9dd2d6;fill-opacity:1;fill-rule:nonzero;stroke:#000000;stroke-width:0.75;stroke-linecap:butt;stroke-linejoin:round;stroke-miterlimit:14.33600044;stroke-dasharray:none;stroke-opacity:1"
           id="path4294"
           inkscape:connector-curvature="0" /></g></g><text
       transform="matrix(1,0,0,-1,11.7783,20.6348)"
       style="font-variant:normal;font-weight:bold;font-stretch:normal;font-size:7px;font-family:Arial;-inkscape-font-specification:Arial-BoldMT;writing-mode:lr-tb;fill:#000000;fill-opacity:1;fill-rule:nonzero;stroke:none"
       id="text4296"><tspan
         x="0 5.0539999 8.9460001 15.169 19.445999 21.777 25.669001 27.615 33.445999 37.338001 43.561001 47.838001 50.561001 54.452999 56.398998 58.345001 62.622002 64.953003 68.845001 71.568001 73.899002 77.791 81.682999"
         y="0"
         sodipodi:role="line"
         id="tspan4298">Remote Memory Interface</tspan></text>
<text
       transform="matrix(1,0,0,-1,10.6958,13.3442)"
       style="font-variant:normal;font-weight:normal;font-stretch:normal;font-size:6px;font-family:Arial;-inkscape-font-specification:ArialMT;writing-mode:lr-tb;fill:#000000;fill-opacity:1;fill-rule:nonzero;stroke:none"
       id="text4300"><tspan
         x="0 4.9980001 8.3339996 13.332 16.667999 18.666 21.666 23.334 25.332001 28.667999 32.004002 33.335999 34.667999 37.667999 41.004002 42.672001 44.004002 47.34 50.675999 52.344002 55.68 59.015999 62.352001 64.019997 67.356003 69.024002 72.360001 77.358002 78.690002 81.690002 83.022003 84.690002"
         y="0"
         sodipodi:role="line"
         id="tspan4302">Memory replication and atomicity</tspan></text>
<g
       id="g4304"><g
         id="g4306"
         clip-path="url(#clipPath4308)"><path
           d="m 138.917,54.542 97.512,0 0,-21.567 -97.512,0 0,21.567 z"
           style="fill:#ff6666;fill-opacity:1;fill-rule:nonzero;stroke:#000000;stroke-width:0.75;stroke-linecap:butt;stroke-linejoin:round;stroke-miterlimit:14.33600044;stroke-dasharray:none;stroke-opacity:1"
           id="path4312"
           inkscape:connector-curvature="0" /></g></g><text
       transform="matrix(1,0,0,-1,168.2329,47.8223)"
       style="font-variant:normal;font-weight:bold;font-stretch:normal;font-size:7px;font-family:Arial;-inkscape-font-specification:Arial-BoldMT;writing-mode:lr-tb;fill:#000000;fill-opacity:1;fill-rule:nonzero;stroke:none"
       id="text4314"><tspan
         x="0 5.0539999 7 11.277 15.169 19.061001 21.007 25.676001 28.007 32.284 35.007"
         y="0"
         sodipodi:role="line"
         id="tspan4316">Block Store</tspan></text>
<text
       transform="matrix(1,0,0,-1,142.3228,40.5317)"
       style="font-variant:normal;font-weight:normal;font-stretch:normal;font-size:6px;font-family:Arial;-inkscape-font-specification:ArialMT;writing-mode:lr-tb;fill:#000000;fill-opacity:1;fill-rule:nonzero;stroke:none"
       id="text4318"><tspan
         x="0 4.9980001 8.3339996 13.332 16.667999 18.666 21.666 23.334 26.67 28.002001 31.337999 34.338001 37.338001 40.338001 42.006001 45.341999 48.341999 51.678001 55.014 58.014 61.349998 64.685997 66.353996 68.022003 71.358002 73.026001 77.358002 81.690002 86.688004"
         y="0"
         sodipodi:role="line"
         id="tspan4320">Memory blocks exposed to RDMA</tspan></text>
<g
       id="g4322"><g
         id="g4324"
         clip-path="url(#clipPath4326)"><path
           d="m 138.917,32.979 97.512,0 0,-15.945 -97.512,0 0,15.945 z"
           style="fill:#ffb3bc;fill-opacity:1;fill-rule:nonzero;stroke:#000000;stroke-width:0.75;stroke-linecap:butt;stroke-linejoin:round;stroke-miterlimit:14.33600044;stroke-dasharray:none;stroke-opacity:1"
           id="path4330"
           inkscape:connector-curvature="0" /></g></g><text
       transform="matrix(1,0,0,-1,166.0991,26.2598)"
       style="font-variant:normal;font-weight:bold;font-stretch:normal;font-size:7px;font-family:Arial;-inkscape-font-specification:Arial-BoldMT;writing-mode:lr-tb;fill:#000000;fill-opacity:1;fill-rule:nonzero;stroke:none"
       id="text4332"><tspan
         x="0 5.0539999 7.3850002 11.662 17.885 19.830999 23.723 25.669001 30.723 35 39.277"
         y="0"
         sodipodi:role="line"
         id="tspan4334">Atomic Copy</tspan></text>
<text
       transform="matrix(1,0,0,-1,148.3188,18.9692)"
       style="font-variant:normal;font-weight:normal;font-stretch:normal;font-size:6px;font-family:Arial;-inkscape-font-specification:ArialMT;writing-mode:lr-tb;fill:#000000;fill-opacity:1;fill-rule:nonzero;stroke:none"
       id="text4336"><tspan
         x="0 4.0019999 5.6700001 9.0059996 14.004 15.336 18.336 20.004 23.34 26.676001 30.011999 33.348 35.015999 38.352001 41.352001 43.02 44.688 48.023998 49.692001 53.028 54.360001 57.695999 60.695999 63.695999 65.363998 68.363998 70.031998 73.367996 75.365997"
         y="0"
         sodipodi:role="line"
         id="tspan4338">Atomic updates to block store</tspan></text>
<g
       id="g4340"><g
         id="g4342"
         clip-path="url(#clipPath4344)"><g
           id="g4348"
           transform="translate(102.6763,21.333)"><path
             d="M 0,0 35.32,22.092"
             style="fill:none;stroke:#000000;stroke-width:1;stroke-linecap:butt;stroke-linejoin:miter;stroke-miterlimit:10;stroke-dasharray:none;stroke-opacity:1"
             id="path4350"
             inkscape:connector-curvature="0" /></g><g
           id="g4352"
           transform="translate(137.3569,38.2002)"><path
             d="M 0,0 -0.967,0.259 0.315,5.021 -4.527,5.952 -4.337,6.934 1.561,5.799 0,0 Z"
             style="fill:#000000;fill-opacity:1;fill-rule:nonzero;stroke:none"
             id="path4354"
             inkscape:connector-curvature="0" /></g><g
           id="g4356"
           transform="translate(104.3149,13.083)"><path
             d="M 0,0 32.963,12.5"
             style="fill:none;stroke:#000000;stroke-width:1;stroke-linecap:butt;stroke-linejoin:miter;stroke-miterlimit:10;stroke-dasharray:none;stroke-opacity:1"
             id="path4358"
             inkscape:connector-curvature="0" /></g><g
           id="g4360"
           transform="translate(108.8633,10.4336)"><path
             d="M 0,0 0.378,0.927 -4.189,2.784 -2.003,7.205 -2.9,7.647 -5.562,2.264 0,0 Z"
             style="fill:#000000;fill-opacity:1;fill-rule:nonzero;stroke:none"
             id="path4362"
             inkscape:connector-curvature="0" /></g><g
           id="g4364"
           transform="translate(135.6294,20.5845)"><path
             d="M 0,0 -0.897,0.443 1.29,4.862 -3.278,6.721 -2.9,7.647 2.662,5.383 0,0 Z"
             style="fill:#000000;fill-opacity:1;fill-rule:nonzero;stroke:none"
             id="path4366"
             inkscape:connector-curvature="0" /></g></g></g><text
       transform="matrix(0.95322475,0.30226242,0.30226242,-0.95322475,106.9491,2.995)"
       style="font-variant:normal;font-weight:normal;font-stretch:normal;font-size:8.00000191px;font-family:'Myriad Pro';-inkscape-font-specification:MyriadPro-Regular;writing-mode:lr-tb;fill:#000000;fill-opacity:1;fill-rule:nonzero;stroke:none"
       id="text4368"><tspan
         x="0 3.6560009 9.4640026 13.976004 16.432005 19.600004 21.472006 25.984007 29.992008"
         y="0"
         sodipodi:role="line"
         id="tspan4370">Two-sided</tspan></text>
<text
       transform="matrix(0.83807159,0.54556028,0.54556028,-0.83807159,106.5183,30.0464)"
       style="font-variant:normal;font-weight:normal;font-stretch:normal;font-size:8.00003242px;font-family:'Myriad Pro';-inkscape-font-specification:MyriadPro-Regular;writing-mode:lr-tb;fill:#000000;fill-opacity:1;fill-rule:nonzero;stroke:none"
       id="text4372"><tspan
         x="0 5.5120225 9.9520407 14.183258 16.639267 19.807281 21.679289 26.191307 30.199324"
         y="0"
         sodipodi:role="line"
         id="tspan4374">One-sided</tspan></text>
</g></svg>